Coordinates
version=1
nRows=17
nColumns=36
inDegrees=yes

Units are S.I. units (second, meters, Newtons, ...)
If the header above contains a line with 'inDegrees', this indicates whether rotational values are in degrees (yes) or radians (no).

endheader
time	pelvis_tilt	pelvis_list	pelvis_rotation	pelvis_tx	pelvis_ty	pelvis_tz	hip_flexion_r	hip_adduction_r	hip_rotation_r	knee_angle_r	knee_angle_r_beta	ankle_angle_r	subtalar_angle_r	mtp_angle_r	hip_flexion_l	hip_adduction_l	hip_rotation_l	knee_angle_l	knee_angle_l_beta	ankle_angle_l	subtalar_angle_l	mtp_angle_l	lumbar_extension	lumbar_bending	lumbar_rotation	arm_flex_r	arm_add_r	arm_rot_r	elbow_flex_r	pro_sup_r	arm_flex_l	arm_add_l	arm_rot_l	elbow_flex_l	pro_sup_l
     -0.44000000	      2.43415876	      0.74215755	      0.89436324	     -0.54121644	      1.14708711	     -0.22215405	     23.47784626	     -2.40115432	      1.12939621	     66.17731845	      1.15501210	    -11.87591396	    -22.55133205	     -7.49702297	      2.18144883	      5.60983438	     -2.43451318	     12.62423223	      0.22033442	      7.89858024	     -9.95017608	     -7.49702297	    -13.22071366	     -2.10020725	     -5.61141954	     -3.55412857	     -1.63458195	    -15.00620814	     27.72729427	     97.39288760	     -3.91724590	     -4.49385547	    -19.49828576	     30.16478719	     99.73443766
     -0.43000000	      2.24589559	      0.69159699	      1.00688471	     -0.53149166	      1.14436386	     -0.22240322	     24.01622311	     -2.36550678	      0.83935671	     64.16376105	      1.11986889	    -11.32743407	    -23.45890582	     -7.49703699	      1.66131392	      5.53796107	     -2.67859596	     12.19870179	      0.21290751	      7.82283600	     -9.77079623	     -7.49703699	    -12.94070444	     -1.95519087	     -5.70018725	     -3.69596062	     -1.64134193	    -15.03271346	     27.79832983	     97.40841535	     -3.75260970	     -4.59217905	    -19.43983727	     30.51035815	     99.78043852
     -0.42000000	      2.02913402	      0.69985077	      1.13333461	     -0.52158520	      1.14130984	     -0.22251402	     24.50829186	     -2.35736374	      0.54722710	     61.96614113	      1.08151319	    -10.39552019	    -24.41611009	     -7.49705742	      1.27552675	      5.51865094	     -2.95464484	     11.98523017	      0.20918173	      7.81258482	     -9.63035366	     -7.49705742	    -12.64945560	     -1.89484689	     -5.80152491	     -3.86168301	     -1.64041179	    -15.07093322	     27.95083851	     97.33898146	     -3.59318253	     -4.71069702	    -19.35371606	     30.96065959	     99.74449031
     -0.41000000	      1.91575080	      0.62964883	      1.36522991	     -0.51151779	      1.13846575	     -0.22290696	     24.78593900	     -2.28328636	      0.16164677	     59.49156951	      1.03832377	     -9.23219640	    -25.27247558	     -7.49713214	      0.86554630	      5.40245971	     -3.28043276	     11.98096171	      0.20910723	      8.13435659	     -9.14126783	     -7.49713214	    -12.60590521	     -1.65008377	     -6.02410537	     -4.09770708	     -1.67701267	    -15.27064058	     28.43446651	     97.12285610	     -3.61373976	     -4.82391927	    -18.94113675	     32.05833338	     99.67569025
     -0.40000000	      1.64343192	      0.87707174	      1.45532557	     -0.50129904	      1.13528345	     -0.22276278	     25.40776107	     -2.45202311	      0.06421029	     57.20148460	      0.99835424	     -7.70913744	    -26.20426993	     -7.49714848	      0.56847041	      5.64166760	     -3.59776925	     11.91899929	      0.20802578	      8.15410102	     -9.20646680	     -7.49714848	    -12.23237078	     -1.97553235	     -6.15887333	     -4.31583908	     -1.50658375	    -15.29938427	     28.53217293	     97.05857423	     -3.41390853	     -5.10316328	    -18.88203973	     32.41936830	     99.64230912
     -0.39000000	      1.24429806	      1.02173010	      1.68560993	     -0.49105476	      1.13242837	     -0.22312958	     26.13768109	     -2.55833713	     -0.09663219	     54.76309500	      0.95579632	     -5.80039342	    -26.57808151	     -7.49719495	      0.47988851	      5.78685636	     -3.82930865	     12.05467168	      0.21039371	      8.31415329	     -9.14082191	     -7.49719495	    -11.76233876	     -2.03808903	     -6.35592314	     -4.64933914	     -1.46691726	    -15.41972821	     28.81801692	     96.80137813	     -3.36485066	     -5.25599460	    -18.67069577	     33.12316638	     99.45453164
     -0.38000000	      0.80651510	      1.24391988	      1.91652171	     -0.48085593	      1.13009382	     -0.22363177	     26.96459722	     -2.77513978	     -0.19053069	     52.35848591	      0.91382797	     -3.37127458	    -26.00004685	     -7.49730005	      0.38052468	      6.03221543	     -4.03215258	     12.15069842	      0.21206969	      8.67120435	     -8.91694667	     -7.49730005	    -11.22380232	     -2.23912920	     -6.71691760	     -4.98018224	     -1.30705830	    -15.76480124	     29.20603763	     96.38905684	     -3.59358568	     -5.58038419	    -18.04701538	     34.24433318	     99.28000718
     -0.37000000	      0.45107422	      1.43729458	      2.10920161	     -0.47104167	      1.12869468	     -0.22408563	     27.70027695	     -2.86378372	     -0.03633422	     49.84838419	      0.87001843	     -2.01922513	    -26.33042121	     -7.49732434	      0.18645267	      6.24954796	     -4.19476893	     12.24249600	      0.21367186	      8.69854649	     -8.94779548	     -7.49732434	    -10.76502315	     -2.47231814	     -6.88160364	     -5.23784967	     -1.22462623	    -15.82017067	     29.33377901	     96.26680799	     -3.40643284	     -5.79720306	    -17.94624253	     34.67687273	     99.19979226
     -0.36000000	     -0.05084053	      1.50732806	      2.36494132	     -0.46125898	      1.12787268	     -0.22493068	     28.54966535	     -2.94659454	     -0.02649113	     47.30514809	      0.82563059	     -0.25180272	    -25.59120486	     -7.49742610	      0.10361755	      6.35781892	     -4.32014862	     12.26471744	      0.21405970	      8.80123776	     -8.80516012	     -7.49742610	    -10.15023999	     -2.48986432	     -7.16539137	     -5.58263283	     -1.16452580	    -15.98969726	     29.60617440	     95.70633721	     -3.52663067	     -5.98662478	    -17.51926901	     35.49687578	     98.75282344
     -0.35000000	     -0.48082930	      1.61993813	      2.59607769	     -0.45182071	      1.12770708	     -0.22563305	     29.30185165	     -3.03619353	      0.18060466	     44.75691510	      0.78115553	      0.67219321	    -25.41873236	     -7.49747247	     -0.09136909	      6.51397494	     -4.43313911	     12.20724163	      0.21305656	      8.55297668	     -8.73342554	     -7.49747247	     -9.63721285	     -2.59034267	     -7.38138053	     -5.83521366	     -1.11625744	    -16.04882918	     29.76097409	     95.44165863	     -3.44955381	     -6.16159564	    -17.31262090	     36.00530879	     98.56008727
     -0.34000000	     -0.75455856	      1.65571615	      2.82182981	     -0.44262022	      1.12818609	     -0.22629977	     29.79663648	     -3.10889602	      0.29165421	     42.14843223	      0.73562892	      1.51189912	    -24.76947521	     -7.49754919	     -0.51189180	      6.59262353	     -4.48754776	     12.03258621	      0.21000825	      7.99863046	     -8.76454007	     -7.49754919	     -9.36557489	     -2.59432700	     -7.64442857	     -5.90591986	     -1.08666122	    -16.14809720	     29.72908375	     95.51255614	     -3.41719939	     -6.45043843	    -16.62548625	     36.75161866	     98.99186110
     -0.33000000	     -1.07127536	      1.66678700	      3.06392217	     -0.43363813	      1.12867174	     -0.22680954	     30.26840223	     -3.15966119	      0.47545280	     39.51647266	      0.68969256	      1.60450809	    -24.65414667	     -7.49776604	     -0.89827660	      6.67032444	     -4.29888048	     11.82027728	      0.20630276	      6.91950372	     -9.23267618	     -7.49776604	     -9.07654635	     -2.55511634	     -7.80882430	     -6.05765524	     -1.14681389	    -15.75587391	     29.92639085	     94.70165092	     -3.22925944	     -6.66879055	    -15.97037988	     37.22957422	     98.61147399
     -0.32000000	     -1.73841854	      1.64505450	      3.35743765	     -0.42481221	      1.12843730	     -0.22722952	     31.06941795	     -3.25097731	      0.58330489	     36.90415978	      0.64409910	      1.45922878	    -24.56036009	     -7.49792795	     -0.83822895	      6.75227336	     -3.86526962	     11.71331411	      0.20443590	      5.29748879	    -10.27175127	     -7.49792795	     -8.23894800	     -2.50306351	     -8.01863245	     -5.95506230	     -1.20905903	    -15.43109758	     29.13004820	     93.14385335	     -3.01177964	     -6.77948157	    -15.53828902	     37.17172545	     97.25414222
     -0.31000000	     -1.52805904	      1.54422536	      3.34608873	     -0.41625152	      1.12935762	     -0.22681202	     30.80113265	     -3.06797166	      0.80417762	     34.12076283	      0.59551965	      1.21809539	    -24.44876920	     -7.49858272	     -1.78956919	      6.55802932	     -4.82685772	     11.49662339	      0.20065393	      4.61975211	     -8.87891964	     -7.49858272	     -8.74132710	     -2.28675474	     -7.99113644	     -5.99153849	     -1.22808447	    -15.71494546	     29.80766385	     95.03560453	     -2.77010751	     -6.81289612	    -16.01785861	     38.07218326	    100.79740648
     -0.30000000	     -1.72497415	      1.48497957	      3.43159609	     -0.40791433	      1.12925855	     -0.22638128	     30.96812496	     -3.00323582	      0.92994475	     31.41717921	      0.54833322	      1.01191266	    -24.32456284	     -7.49876090	     -2.20358367	      6.49561738	     -4.95853791	     11.38064617	      0.19862975	      3.35710714	     -8.81167622	     -7.49876090	     -8.70622719	     -2.13498680	     -8.06948572	     -5.86508202	     -1.36280599	    -15.08329268	     29.73438347	     94.27796582	     -2.56774863	     -6.92783299	    -15.72787694	     38.59347013	    100.21116015
     -0.29000000	     -1.88977681	      1.41815804	      3.47928176	     -0.39969617	      1.12892828	     -0.22580284	     31.05718794	     -2.91323232	      0.96443270	     28.68998396	      0.50073468	      0.92025161	    -24.06137899	     -7.49895953	     -2.59742996	      6.40843016	     -5.06418386	     11.29068777	      0.19705968	      2.44667272	     -8.54561827	     -7.49895953	     -8.76908151	     -1.95228886	     -8.14288784	     -5.67454255	     -1.46103978	    -14.66215339	     29.69691043	     93.75124400	     -2.31758554	     -7.02145923	    -15.57887175	     39.04039674	    100.15118412
     -0.28000000	     -2.04686579	      1.34432277	      3.46661203	     -0.39132891	      1.12832604	     -0.22516565	     31.11962811	     -2.78536320	      0.89364973	     25.98522846	      0.45352779	      1.03334993	    -23.59861797	     -7.49911111	     -2.97018704	      6.30373975	     -5.15127532	     11.16829805	      0.19492357	      2.05466622	     -8.08245930	     -7.49911111	     -8.85483739	     -1.73705521	     -8.16477156	     -5.46638274	     -1.56286026	    -14.36344955	     29.65325306	     93.60929963	     -2.07856767	     -7.07695917	    -15.51863251	     39.50478808	    100.32764490
